# xmcd
#
# Track frame offsets:
#   150
#   17079
#   31758
#   44185
#   59832
#   75102
#   87027
#   102297
#   114207
#   125647
#   136764
#   150327
#   163830
#   176125
#   190126
#   200670
#   214030
#   227928
#
# Disc length: 3210 seconds
#
# Revision: 0
# Processed by: cddbd v1.5PL3 Copyright (c) Steve Scherf et al.
# Submitted via: Click'N Design 3D 4.8
#
DISCID=ef0c8812
DTITLE=LIMON - BANDA LIMON
DYEAR=1990
DGENRE=Dance
TTITLE0=SOLO ESTA VEZ
TTITLE1=ASI TE QUIERO
TTITLE2=COPA VACIA
TTITLE3=EL LEON DE LA SIERRA.
TTITLE4=QUE SE TE OLVIDO
TTITLE5=SE ME HIZO FACIL
TTITLE6=Y QUE PASO
TTITLE7=
TTITLE8=DE MIL MANERAS.
TTITLE9=SI POR CASUALIDAD
TTITLE10=LA CHICA FRASA
TTITLE11=PISTA ENTERADA
TTITLE12=QUE VOY HACER
TTITLE13=LOS TRES GALLOS
TTITLE14=AYER ME VIERON LLORAR
TTITLE15=SELE PELO BALTASAR.
TTITLE16=PA'QUE ME SIRVE LA....
TTITLE17=SE ME CANSO EL CORAZON
EXTD=OK
EXTT0=
EXTT1=
EXTT2=
EXTT3=
EXTT4=
EXTT5=
EXTT6=
EXTT7=
EXTT8=
EXTT9=
EXTT10=
EXTT11=
EXTT12=
EXTT13=
EXTT14=
EXTT15=
EXTT16=
EXTT17=
PLAYORDER=
